<mxfile host="app.diagrams.net" modified="2023-06-25T06:12:20.386Z" agent="Mozilla/5.0 (Windows NT 10.0; Win64; x64) AppleWebKit/537.36 (KHTML, like Gecko) Chrome/114.0.0.0 Safari/537.36 Edg/114.0.1823.58" version="21.5.0" etag="q4cyUYnwTf6Xi2dlCgPu" type="github">
  <diagram name="Page-1" id="Bt2hc6HdbGCJH089RcKH">
    <mxGraphModel>
      <root>
        <mxCell id="0" />
        <mxCell id="1" parent="0" />
      </root>
    </mxGraphModel>
  </diagram>
</mxfile>
